<svg width="436" height="362" viewBox="0 0 436 362" fill="none" xmlns="http://www.w3.org/2000/svg">
<path d="M336.564 252.98C335.255 258.018 333.55 262.943 331.465 267.712C329.576 272.21 330.475 273.741 335.287 273.81C342.472 273.905 349.656 273.613 356.81 272.937C364.453 272.221 372.218 272.779 379.924 272.763C383.245 272.763 386.572 272.735 389.781 271.698C394.539 270.17 396.231 263.519 392.671 259.935C391.708 258.967 391.904 258.514 392.485 257.531C404.614 236.923 416.003 215.911 424.327 193.457C429.484 179.544 433.093 165.19 433.503 150.149C433.678 143.678 434.179 137.238 433.391 130.793C431.002 111.297 423.087 95.4639 404.758 85.9959C398.903 82.9779 393.049 81.8759 386.662 81.9079C385.274 81.8909 383.898 82.1579 382.617 82.6909C381.335 83.2249 380.177 84.0139 379.211 85.0109C378.338 85.8889 377.646 87.0869 376.305 87.3209C371.627 88.1299 370.168 91.5309 369.658 95.6079C369.526 97.1369 368.852 98.5699 367.758 99.6469C357.581 109.371 348.598 120.196 339.364 130.761C338.134 132.166 336.782 133.464 334.957 135.37C335.793 129.297 336.436 124.033 337.288 118.802C337.586 116.965 338.885 115.736 340.636 114.863C344.01 113.182 346.815 110.856 347.991 107.061C349.29 102.888 347.522 99.7959 343.307 98.6619C341.551 98.1939 339.757 98.2049 337.863 98.0449C338.581 95.3149 339.188 92.6539 339.992 90.0619C342.573 81.6689 340.194 74.5639 334.004 68.8099C327.798 62.9229 320.369 58.4779 312.247 55.7919C308.521 54.5839 305.227 55.3129 302.96 58.5969C293.912 71.6789 285.535 85.1549 280.287 100.259C276.519 111.111 278.44 116.545 287.265 123.868C289.55 125.885 292.093 127.589 294.827 128.935C296.179 129.558 296.105 130.165 295.36 131.117C295.306 131.187 295.253 131.261 295.205 131.335C291.847 136.961 290.554 137.504 284.295 135.657C278.036 133.81 272.384 130.771 266.62 127.887C265.257 127.205 263.959 126.407 262.431 126.093C262.126 126.061 261.832 125.961 261.572 125.799C261.311 125.638 261.09 125.42 260.925 125.162C254.144 114.273 254.645 101.105 261.702 91.3339C262.394 90.3759 262.926 90.0299 264.294 90.4929C268.605 91.9459 272.809 89.0879 273.342 84.5209C273.356 84.1419 273.468 83.7729 273.666 83.4489C273.865 83.1259 274.144 82.8589 274.475 82.6749C278.685 79.8379 278.403 75.0159 273.9 72.6099C272.905 72.0779 272.107 71.5729 271.729 70.4389C271.565 69.9119 271.235 69.4519 270.788 69.1289C270.341 68.8049 269.801 68.6349 269.249 68.6449C266.396 68.9909 263.528 68.6449 260.733 69.0129C259.435 69.1769 258.285 69.9279 256.768 69.8319C256.008 69.8099 255.252 69.9469 254.548 70.2329C253.843 70.5189 253.206 70.9479 252.675 71.4929C243.01 80.7639 235.772 91.3919 233.335 104.863C230.982 117.86 232.143 130.25 239.556 141.543C240.536 143.034 240.621 143.928 239.232 145.056C238.428 145.773 237.713 146.585 237.103 147.472C235.298 149.867 235.086 152.225 236.895 154.86C242.265 162.673 248.45 169.804 254.943 176.681C256.193 178.006 256.497 178.964 255.805 180.773C252.117 190.439 248.423 200.121 246.161 210.253C245.831 211.738 245.629 213.248 245.411 214.756C245.134 216.661 246.246 217.815 247.721 218.658C267.977 230.206 288.638 240.825 311.331 246.923C318.399 248.822 325.451 250.765 332.573 252.452C333.765 252.713 335.021 252.772 336.564 252.98Z" fill="#FEFAEF"/>
<path d="M179.736 223.58C172.171 223.58 165.162 223.547 158.152 223.58C156.78 223.58 156.435 222.994 156.519 221.791C156.578 220.892 156.55 219.994 156.573 219.088C156.678 214.464 155.764 213.527 150.964 213.287C147.818 213.133 144.682 212.857 141.538 212.754C138.392 212.654 135.256 212.754 131.887 212.754C132.084 211.994 132.271 211.264 132.473 210.545C134.111 204.826 129.972 200.087 124.107 201.152C122.207 201.498 121.35 201.526 121.393 199.179C121.462 195.451 118.582 192.61 114.824 192.348C113.867 192.279 112.899 192.348 111.706 192.348C112.643 190.262 113.437 188.48 114.241 186.709C116.406 181.919 111.791 174.893 106.315 174.999C104.505 175.036 101.988 175.915 101.057 174.467C100.365 173.37 101.689 171.114 101.837 169.347C102.088 166.43 102.552 163.524 101.983 160.565C101.308 157.069 98.453 154.913 94.754 155.312C92.903 155.514 91.029 155.69 88.774 155.919C90.166 153.875 91.434 152.087 92.632 150.251C93.761 148.516 94.759 146.701 94.946 144.593C95.286 140.772 94.152 139.553 90.156 139.564C92.445 136.019 94.68 132.592 96.889 129.143C98.051 127.441 98.932 125.563 99.498 123.581C100.563 119.536 98.4809 117.242 94.3439 117.94C93.4479 118.172 92.5109 118.2 91.6049 118.02C96.3949 111.383 100.816 104.666 105.974 98.4499C106.102 98.5509 106.276 98.6149 106.31 98.7209C107.311 101.968 107.789 102.117 110.252 99.4449C113.181 96.2519 115.953 92.9679 118.902 89.5939C119.967 90.2859 120.013 91.8819 121.429 91.8559C122.845 91.8289 123.638 90.7909 124.586 89.9819C130.392 84.9469 135.087 79.0179 139.695 72.8609C144.63 66.2659 150.628 60.4489 156.342 54.4619C161.941 48.6069 167.732 42.9179 173.512 37.2279C176.175 34.6199 177.521 31.3259 178.893 28.0099C181.804 21.0009 184.748 14.0021 187.605 6.96622C188.883 3.83152 188.601 3.27802 185.386 3.60802C173.044 4.87472 161.57 8.74931 151.724 16.4078C138.85 26.4239 129.206 39.3249 120.377 52.8699C119.944 53.5359 119.312 54.3769 119.412 54.9989C119.944 58.1929 117.74 59.9599 116.107 62.0189C111.972 67.2559 108.785 73.0899 105.404 78.8059C104.871 79.7099 103.86 80.9609 106 81.4079C107.48 81.7219 106.75 82.5419 106.289 83.1639C98.666 93.4039 93.93 105.182 88.469 116.572C87.937 117.695 87.453 118.855 86.872 119.957C86.037 121.511 85.633 122.9 82.929 122.804C79.734 122.687 77.607 125.465 76.68 128.621C76.35 129.782 76.148 129.973 74.924 129.627C69.681 128.142 66.271 129.728 63.332 134.864C59.6717 130.468 55.9442 126.274 49.3445 127.855C43.3797 129.281 39.8982 133.379 37.3664 138.851C35.3747 136.972 33.4368 134.955 30.5056 135.083C28.9696 135.149 27.495 135.708 26.2995 136.679C23.0483 139.298 22.608 143.423 25.0989 149.421C20.7699 149.676 16.4973 149.421 12.2758 150.049C10.3277 150.347 8.34365 150.384 6.39545 150.682C2.71675 151.214 2.13815 152.396 3.80985 155.743C6.31095 160.698 8.88125 165.621 11.4617 170.539C19.1187 185.139 26.7859 199.734 34.4608 214.326C34.896 215.156 35.2517 215.921 34.9164 216.858C34.3634 218.491 34.256 220.242 34.6042 221.929C35.1366 224.704 34.0026 224.661 31.6986 224.592C25.8797 224.379 20.048 224.622 14.2189 224.686C13.8553 224.681 13.5021 224.804 13.223 225.04C12.944 225.273 12.7597 225.6 12.7034 225.959C12.5728 226.389 12.4704 226.827 12.3936 227.269C11.111 235.487 12.0275 236.572 20.2554 236.562C53.049 236.529 85.85 236.79 118.641 236.347C138.264 236.081 157.896 236.283 177.516 235.815C189.576 235.518 201.629 235.236 213.707 235.285C216.282 235.285 217.48 234.22 217.596 231.749C217.69 230.49 217.69 229.225 217.596 227.966C217.337 225.362 216.001 224.241 213.308 224.159C206.749 224.011 200.185 223.862 193.616 223.714C192.932 223.714 192.252 223.606 190.954 223.496C195.175 220.117 198.37 215.627 200.177 210.53C201.206 207.941 201.649 205.156 201.475 202.376C201.273 199.865 200.006 198.306 197.436 198.236C189.085 198.098 180.734 198.444 172.422 199.268C170.65 199.427 170.581 200.727 170.681 202.046C171.267 209.498 172.875 216.597 178.489 222.111C178.776 222.421 179.042 222.777 179.736 223.58Z" fill="#FEFAEF"/>
<path d="M287.956 340.268C287.791 343.383 288.787 344.187 290.857 343.463C291.789 343.143 292.661 342.669 293.433 342.057C301.778 335.24 310.97 329.518 319.033 322.332C322.125 319.58 322.253 318.741 319.805 315.377C316.643 310.894 312.883 306.865 308.628 303.401C306.611 301.806 304.775 301.492 302.587 303.153C298.303 306.404 293.848 309.428 289.601 312.732C288.196 313.797 286.328 314.952 289.223 317.143C291.98 319.23 292.986 322.327 291.634 326.193C289.915 331.013 288.994 336.139 287.956 340.268Z" fill="#FEFAEF"/>
<path d="M163.774 357.727C166.872 356.821 169.962 357.763 173.059 357.727C177.631 357.65 182.224 357.95 186.786 357.993C199.98 358.119 198.342 358.833 206.925 348.549C207.555 347.789 208.113 346.972 208.592 346.107C209.603 344.331 209.529 342.633 207.824 341.317C203.28 337.795 198.639 334.398 193.503 331.738C191.517 330.711 190.065 331.254 188.962 333.09C188.358 333.978 187.8 334.897 187.293 335.847C183.747 343.591 177.127 347.833 169.841 351.399C167.514 352.538 165.364 354.059 163.134 355.385C162.502 355.761 161.857 356.183 162.151 357.061C162.443 357.94 163.193 357.561 163.774 357.727Z" fill="#FEFAEF"/>
<path d="M341.248 357.655C342.963 357.653 344.611 356.987 345.846 355.797C347.081 354.606 347.808 352.983 347.874 351.271C347.943 347.013 344.771 343.186 341.211 343.186C337.485 343.186 333.69 346.719 334.153 350.211C334.686 354.176 336.341 357.934 341.248 357.655Z" fill="#FEFAEF"/>
<path d="M297.701 351.365C297.701 354.665 300.655 357.52 304.146 357.561C307.638 357.604 311.172 354.207 311.118 350.748C311.065 347.39 307.712 343.829 304.498 343.744C301.107 343.644 297.723 347.449 297.701 351.365Z" fill="#FEFAEF"/>
<path d="M384.799 356.572C388.589 356.572 391.718 353.539 391.628 350.037C391.537 346.535 388.12 343.092 384.655 343.063C381.191 343.038 377.982 346.043 378.306 349.307C378.721 353.526 380.281 356.77 384.799 356.572Z" fill="#FEFAEF"/>
<path d="M114.916 224.177C82.312 224.023 49.7081 224.172 17.104 224.622C12.8928 224.676 11.9789 225.649 12.3142 229.771C12.8467 236.38 13.1078 236.688 19.7638 236.624C52.9056 236.396 86.052 236.252 119.194 235.848C150.442 235.464 181.681 234.783 212.929 234.32C215.65 234.284 216.746 233.372 216.804 230.823C216.804 230.019 216.943 229.228 216.889 228.406C216.628 224.602 216.612 224.681 212.742 224.592C180.122 223.867 147.518 224.282 114.916 224.177Z" fill="#2D2D2D"/>
<path d="M187.403 324.654C187.403 326.06 188.161 326.846 188.911 327.634C191.422 330.297 194.54 332.109 197.553 334.057C202.215 337.076 206.728 340.34 211.631 342.994C214.186 344.379 215.775 343.665 217.368 341.397C222.818 333.707 228.459 326.149 233.92 318.469C239.593 310.487 245.629 302.764 251.574 295.004C252.638 293.604 253.17 293.94 254.235 294.925C261.154 301.379 268.743 306.996 276.535 312.343C277.424 312.95 278.408 313.408 279.286 314.036C282.379 316.224 285.141 316.112 288.334 313.785C293.928 309.694 299.415 305.472 304.753 301.061C308.362 298.079 308.255 296.397 304.833 293.243C302.917 291.474 301.108 289.564 299.319 287.685C298.915 287.26 298.148 286.892 298.425 286.175C298.702 285.456 299.516 285.85 300.086 285.722C311.795 283.029 323.109 279.419 331.694 270.362C335.377 266.476 337.985 261.922 338.837 256.492C339.236 253.927 338.198 252.767 335.723 252.155C316.946 247.668 298.792 241.224 280.777 234.394C270.324 230.434 260.632 224.814 250.44 220.212C245.932 218.179 245.98 218.082 243.596 222.377C228.023 250.322 212.45 278.27 196.877 306.222C193.918 311.545 191.107 316.959 188.25 322.338C187.83 323.141 187.239 323.886 187.403 324.654Z" fill="#FEFAEF"/>
<path d="M375.539 88.4172C378.381 88.9502 379.354 87.7202 380.169 86.2572C381.287 84.2562 382.127 82.3242 380.462 80.0562C376.874 75.2112 373.029 70.5622 368.944 66.1282C361.956 58.4852 354.766 51.0612 346.405 44.8392C339.938 40.0122 332.567 36.9992 325.361 33.5932C323.764 32.8382 322.364 33.2212 321.385 34.7222C317.308 40.9812 312.375 46.5852 307.872 52.5142C305.36 55.8302 305.402 55.7072 309.416 56.5802C319.395 58.7302 328.081 63.2432 335.095 70.7642C340.263 76.3252 341.082 82.7492 338.991 89.7592C338.304 92.0682 337.48 94.3302 336.692 96.6082C335.808 99.1472 337.139 100.813 339.752 100.1C342.653 99.3072 345.074 100.057 346.671 102.298C348.39 104.687 347.443 107.253 345.984 109.568C344.031 112.671 340.758 113.9 337.65 115.236C335.862 116.008 334.92 117.03 334.717 118.93C334.121 124.619 333.456 130.298 332.844 135.987C332.764 136.69 332.727 137.462 333.562 137.845C334.398 138.228 334.946 137.765 335.425 137.201C343.286 127.786 352.6 119.755 360.743 110.59C363.793 107.162 366.927 103.809 370.073 100.477C370.508 100.027 370.836 99.4852 371.035 98.8912C371.234 98.2972 371.298 97.6662 371.222 97.0452C371.008 95.0742 371.265 93.0802 371.973 91.2272C372.798 89.2902 374.213 88.3002 375.539 88.4172Z" fill="#2D2D2D"/>
<path d="M209.757 344.256C207.911 343.829 207.181 345.278 206.388 346.384C205.51 347.63 204.509 348.188 202.988 347.863C197.133 346.601 191.309 345.342 185.455 344.139C183.86 343.813 184.126 343.181 184.764 342.116C186.233 339.656 188.053 337.411 189.197 334.751C189.484 334.075 189.968 333.351 189.139 332.882C188.483 332.514 187.792 332.818 187.249 333.461C185.053 335.959 183.107 338.665 181.438 341.54C180.545 343.092 179.19 344.325 177.562 345.07C172.304 347.779 166.79 350.226 162.31 354.043C159 356.859 155.641 357.131 151.745 357.151C141.313 357.21 130.899 356.119 120.467 356.619C98.694 357.645 76.903 356.721 55.1251 357.284C54.1037 357.284 52.9978 357.609 51.7357 356.859C55.5987 352.479 59.3363 348.15 63.169 343.903C78.603 326.8 93.978 309.62 109.807 292.864C112.766 289.728 112.781 289.756 115.687 292.795C131.004 308.805 146.323 324.813 161.639 340.823C163.692 342.951 165.679 345.18 167.686 347.374C168.367 348.114 169.101 349.082 170.138 348.188C171.357 347.124 170.026 346.437 169.452 345.787C158.157 333.069 146.85 320.356 135.527 307.653C129.675 301.056 123.879 294.393 117.965 287.852C116.65 286.398 116.66 285.614 118.035 284.178C130.684 270.976 142.961 257.429 154.87 243.538C155.864 242.373 156.998 241.275 157.712 239.947C159 237.476 160.861 237.033 163.523 236.939C176.827 236.45 190.134 236.711 203.439 236.293C207.755 236.16 212.066 236.017 216.377 236.027C217.91 236.027 218.172 235.523 218.363 234.012C218.65 231.701 218.788 229.376 218.778 227.049C218.778 224.039 217.793 223.053 214.733 223.038C208.697 223.038 202.663 223.038 196.637 223.038H194.205C196.429 221.097 198.296 218.783 199.719 216.197C200.385 214.948 201.347 215.501 202.274 215.719C204.903 216.336 207.453 216.251 209.757 214.654C211.923 213.184 212.691 211.052 212.153 208.546C211.884 207.309 211.208 206.201 210.23 205.397C209.255 204.593 208.036 204.142 206.772 204.117C205.628 204.089 204.455 203.915 203.349 204.437C202.392 197.271 204.03 197.33 195.116 197.123C189.464 196.985 183.796 197.33 178.164 196.59C175.806 196.27 173.546 197.079 171.213 197.156C169.314 197.218 169.084 198.8 169.084 200.305C169.117 208.651 170.814 216.428 177.201 223.038C170.814 223.038 164.854 223.038 158.872 223.038C157.881 223.038 157.594 222.569 157.753 221.701C157.85 221.169 158.083 220.675 158.157 220.148C159.01 214.175 157.994 212.941 152.548 212.744C133.192 212.048 113.823 212.375 94.462 212.34C91.749 212.34 90.323 211.497 89.14 209.145C80.904 192.965 72.605 176.822 64.236 160.714C62.884 158.09 61.4227 155.519 59.9098 152.986C59.3363 152.017 59.0215 149.952 57.4983 150.83C56.3539 151.49 57.4573 153.146 57.9949 154.237C60.8902 160.091 63.768 165.946 66.771 171.704C73.37 184.402 80.013 197.079 86.698 209.736C87.591 211.446 87.803 212.301 85.223 212.276C72.705 212.163 60.176 212.212 47.6525 212.276C44.2528 212.276 40.8557 212.585 37.456 212.77C36.4192 212.823 35.6358 212.724 35.0598 211.595C25.296 192.471 14.8947 173.679 5.37918 154.428C5.14878 153.882 4.94908 153.322 4.78268 152.752C5.95258 152.752 6.91258 152.752 7.89568 152.752C23.4682 153.082 38.9894 151.182 54.5619 151.661C55.3658 151.687 56.4409 151.772 56.423 150.687C56.4077 149.601 55.4247 149.862 54.5824 149.883C43.5232 150.144 32.4794 149.617 21.4304 149.111C15.4323 148.835 9.38558 148.579 3.40028 149.532C0.53568 149.979 -0.0506192 151.187 1.40348 153.79C12.432 173.413 22.4467 193.636 33.0221 213.532C34.3328 216 33.2038 219.098 33.2294 221.904C33.2294 222.754 32.4051 222.085 31.9699 222.068C25.7926 221.878 19.6102 222.193 13.4842 223.01C11.4208 223.26 10.5786 224.469 10.617 226.496C10.6631 229.289 10.681 232.085 10.617 234.873C10.5735 236.529 11.3773 237.284 12.8621 237.732C14.5491 238.265 16.2515 238.162 17.9488 238.162C33.4496 238.183 48.9453 238.183 64.438 238.162C65.908 238.162 66.722 238.595 67.633 239.865C73.621 248.354 80.938 255.721 87.965 263.327C94.687 270.608 101.464 277.835 108.294 285.008C109.566 286.344 109.561 287.079 108.363 288.484C93.505 305.861 78.214 322.855 62.879 339.812C57.9309 345.283 52.9286 350.718 48.0851 356.278C47.1328 357.369 46.1677 357.402 45.008 357.412L14.2035 357.673C13.8426 357.673 13.4842 357.673 13.1385 357.673C12.3987 357.673 11.4259 357.673 11.4029 358.518C11.4029 359.529 12.4422 359.258 13.1078 359.281C18.8653 359.465 24.6253 359.716 30.3827 359.785C50.0742 360.016 69.82 360.003 89.529 360.412C125.546 361.163 161.56 361.262 197.569 360.717C236.474 360.185 275.38 360.51 314.28 360.425C345.979 360.356 377.683 360.732 409.382 360.914H411.272C412.262 360.914 413.459 361.037 413.374 359.552C413.299 358.188 412.15 358.167 411.144 358.226C404.486 358.587 397.838 358.472 391.143 358.311C390.946 357.205 391.915 356.928 392.367 356.363C396.545 351.079 394.017 343.819 387.434 342.431C386.785 342.326 386.167 342.08 385.623 341.714C385.079 341.346 384.621 340.864 384.283 340.301C381.827 336.551 379.262 332.869 376.587 329.257C370.732 321.365 362.568 317.118 353.169 315.026C350.961 314.532 350.301 314.271 351.008 311.662C354.202 299.804 357.783 288.026 359.849 275.881C360.067 274.599 360.828 274.407 361.945 274.368C367.507 274.204 373.085 274.076 378.615 273.682C382.601 273.401 386.641 273.682 390.632 272.878C392.729 272.459 393.889 271.522 394.454 269.686C394.964 268.171 395.308 266.606 395.481 265.019C395.906 259.748 395.087 259.239 389.871 258.632C383.309 257.877 376.757 258.164 370.216 258.253C361.333 258.376 352.456 258.908 343.605 259.377C342.338 259.441 339.986 259.08 340.103 260.708C340.231 262.495 342.535 261.963 343.967 261.916C349.172 261.75 354.383 261.059 359.588 261.443C368.928 262.139 378.279 261.893 387.625 261.975C388.945 261.975 390.712 262.032 391.09 263.209C391.352 264.072 391.439 264.981 391.348 265.877C391.257 266.775 390.988 267.648 390.558 268.439C390.18 269.143 389.493 268.972 388.881 268.972C387.62 268.972 386.358 269.01 385.097 268.972C376.465 268.764 367.842 269.376 359.231 269.681C350.535 269.983 341.716 269.878 332.684 272.405C335.542 268.468 337.926 264.837 338.937 260.526C339.284 259.057 339.592 257.577 339.832 256.087C339.949 255.337 339.757 254.554 338.842 254.49C338.07 254.421 337.905 255.081 337.703 255.732C333.599 268.839 324.057 276.36 311.667 280.853C307.994 282.181 304.157 283.054 300.463 284.332C299.122 284.8 298.335 284.475 297.323 283.684C292.751 280.054 288.121 276.483 283.486 272.912C282.927 272.464 282.318 272.085 281.671 271.783C281.096 271.527 280.356 271.394 279.962 272.028C279.843 272.274 279.809 272.553 279.865 272.82C279.921 273.088 280.064 273.329 280.271 273.508C281.075 274.353 281.767 275.31 282.618 276.104C289.995 282.985 297.392 289.844 304.812 296.681C305.876 297.649 306.296 298.102 304.849 299.213C298.361 304.185 291.969 309.294 285.567 314.371C284.752 315.016 284.22 315.515 283.054 314.686C273.794 308.053 264.155 301.95 255.283 294.779C247.662 288.617 240.998 281.644 236.581 272.758C231.291 262.114 233.771 252.532 243.553 245.842C248.545 242.425 254.096 240.218 259.733 238.178C262.673 237.115 265.54 235.858 268.317 234.422C268.897 234.117 269.6 233.846 269.307 233.106C269.094 232.574 268.312 232.653 267.854 232.82C256.411 236.918 244.655 240.494 235.809 249.488C229.204 256.21 228.103 264.077 231.967 272.666C235.314 280.118 240.961 285.684 246.948 290.837C257.705 300.081 268.552 309.246 280.675 316.729C282.538 317.878 284.14 319.56 286.562 317.463C287.568 316.59 290.447 320.264 290.09 322.13C288.93 328.156 287.717 334.17 286.546 340.194C286.433 340.992 286.36 341.796 286.328 342.6C286.205 343.957 285.449 345.585 287.105 346.412C288.563 347.134 289.84 346.064 290.958 345.25C297.557 340.434 304.12 335.565 310.836 330.811C308.409 334.536 305.557 338.002 303.486 341.963C303.252 342.408 302.778 342.408 302.342 342.531C294.976 344.597 292.858 350.828 297.398 357.013C297.595 357.279 297.813 357.545 298.042 357.812H200.902C203.354 354.788 205.43 352.489 207.212 349.95C208.415 348.247 210.561 346.816 209.657 344.174L209.757 344.256ZM153.772 237.136C153.621 237.453 153.444 237.758 153.24 238.044C140.132 251.697 127.624 265.887 115.336 280.267C113.803 282.061 113.063 282.396 111.248 280.4C98.645 266.563 86.5 252.25 73.04 239.184C72.802 238.946 72.508 238.705 72.843 238.178C99.677 238.142 126.613 238.398 153.772 237.136ZM300.666 286.354C312.513 285.072 322.779 281.385 331.295 273.582C331.662 273.247 331.928 272.794 332.498 273.539C333.296 274.565 334.568 274.412 335.739 274.407C341.503 274.407 347.267 274.407 353.031 274.376C354.574 274.376 355.341 274.491 354.83 276.419C351.704 288.231 349.06 300.148 346.9 312.174C346.665 313.483 346.005 313.861 344.702 313.923C338.139 314.238 331.785 315.52 325.951 318.715C324.887 319.309 324.594 318.969 323.796 318.091C319.416 313.301 314.86 308.713 310.304 304.105C309.564 303.36 308.707 301.975 307.435 303.007C306.163 304.041 307.59 304.891 308.111 305.713C308.58 306.448 309.022 306.967 307.93 307.628C302.651 310.789 298.303 315.116 293.598 319.278C292.943 317.351 291.048 316.393 290.277 314.588C292.815 312.738 295.232 311.03 297.584 309.23C301.842 305.956 306.424 303.045 310.384 299.356C311.858 297.984 312.374 296.958 310.352 295.33C307.074 292.672 304.146 289.618 300.66 286.354H300.666ZM199.985 225.741C205.09 225.741 209.501 225.741 213.919 225.741C214.605 225.741 215.596 225.465 215.857 226.274C216.554 228.493 215.857 230.764 215.453 232.904C215.228 234.069 213.382 233.462 212.258 233.467C162.369 233.644 112.477 232.735 62.588 233.756C48.2183 234.048 33.8055 234.315 19.408 234.379C17.529 234.379 15.1507 235.592 13.8682 234.245C12.4371 232.776 13.5584 230.27 13.2819 228.242C13.0054 226.215 13.671 225.634 15.7523 225.672C25.3907 225.846 35.0342 226.033 44.6675 226.097C81.219 226.343 117.784 226.629 154.338 225.662C158.063 225.564 161.644 226.251 165.328 226.32C177.137 226.55 188.893 225.511 199.985 225.741ZM346.596 358.183C347.176 357.545 347.474 357.259 347.725 356.933C351.982 351.312 350.221 344.927 343.552 342.564C341.955 342.032 342.977 341.338 343.11 340.818C344.707 334.623 346.468 328.469 347.943 322.248C348.512 319.852 349.593 319.092 351.849 319.816C352.19 319.929 352.514 320.087 352.861 320.177C360.791 322.204 367.23 326.905 373.681 331.653C377.422 334.477 380.508 338.076 382.729 342.206C379.003 343.212 376.747 345.495 376.129 349.056C375.533 352.469 376.497 355.564 379.466 358.162L346.596 358.183ZM305.817 342.797C307.443 339.505 309.49 336.438 311.906 333.676C320.203 324.281 330.72 319.465 343.185 318.702C345.074 318.592 345.553 319.235 345.159 321.024C343.733 327.447 342.317 333.878 341.035 340.327C340.806 341.499 340.502 341.817 339.326 342.088C332.636 343.616 330.167 350.966 334.382 356.396C334.781 356.928 335.617 357.195 335.494 357.993H310.432C315.281 351.399 313.258 344.83 305.817 342.797ZM36.7853 215.842C38.2701 216.699 39.7191 216.517 41.145 216.517C56.6099 216.517 72.072 216.561 87.532 216.059C100.652 215.634 113.782 215.619 126.918 215.422C127.189 215.422 127.45 215.422 127.727 215.422C136.886 215.452 146.033 214.549 155.014 215.048C155.014 217.05 154.794 219.034 155.078 220.941C155.359 222.846 154.694 223.24 152.996 223.068C143.325 222.091 133.597 222.349 123.915 222.196C98.077 221.786 72.226 222.052 46.3878 222.057C45.2231 222.052 44.0608 222.162 42.9165 222.382C37.136 223.516 36.4448 222.915 36.6163 217.145C36.5933 216.858 36.6573 216.597 36.7853 215.842ZM185.557 200.295V200.333C189.612 200.333 193.667 200.397 197.725 200.3C199.399 200.264 200.098 200.576 199.921 202.509C199.251 209.928 196.196 215.995 190.495 220.854C186.461 224.287 182.093 224.049 178.75 219.912C174.349 214.495 172.688 208.108 171.83 201.39C171.644 199.924 172.708 200.328 173.428 200.328C177.452 200.279 181.507 200.295 185.557 200.295ZM292.783 328.354C293.741 327.644 294.662 328.034 295.508 327.921C296.355 327.811 297.472 328.272 297.696 326.964C297.919 325.655 296.972 325.42 295.907 325.164C295.072 324.962 293.651 325.084 293.619 323.994C293.587 322.903 294.22 321.982 295.349 321.242C300.455 317.901 305.292 314.164 309.814 310.065C310.879 309.118 311.326 309.417 312.114 310.247C314.333 312.599 316.552 314.962 318.931 317.166C320.326 318.454 319.916 318.943 318.591 319.911C312.359 324.478 306.222 329.168 300.059 333.819C296.866 336.213 293.726 338.609 290.181 341.323C290.782 338.348 291.298 335.926 291.74 333.494C291.857 332.828 291.863 332.316 292.757 332.247C294.093 332.142 296.179 332.78 296.323 330.875C296.456 329.129 294.141 329.534 293.034 328.779C292.943 328.715 292.917 328.612 292.783 328.354ZM203.646 349.712C201.859 351.924 200.295 353.867 198.718 355.799C198.186 356.427 197.712 356.905 196.711 356.864C186.727 356.268 176.728 356.747 166.733 356.57C166.009 356.57 165.136 356.974 164.45 356.081C166.344 354.975 168.282 354.01 170.015 352.771C171.613 351.652 172.678 351.706 173.743 353.367C174.211 354.117 174.982 354.937 175.955 354.212C176.758 353.618 176.131 352.727 175.955 351.972C175.78 351.217 174.567 350.375 175.609 349.712C176.653 349.046 177.043 350.428 177.739 350.882C177.962 351.025 178.123 351.271 178.34 351.414C178.581 351.621 178.883 351.744 179.201 351.767C179.518 351.788 179.835 351.706 180.102 351.532C180.762 350.999 180.127 350.467 180.028 349.876C179.874 348.992 178.228 348.278 179.362 347.385C180.373 346.581 181.395 345.787 183.174 346.171C189.73 347.592 196.355 349.105 203.626 349.712H203.646ZM299.34 350.098C299.394 347.395 302.342 344.569 304.982 344.692C307.297 344.804 310.155 348.158 310.155 350.759C310.155 353.362 307.345 356.13 304.774 356.032C301.868 355.927 299.266 353.086 299.319 350.111L299.34 350.098ZM390.18 349.837C390.18 352.5 387.795 354.952 385.251 354.847C382.968 354.75 380.461 351.962 380.461 349.525C380.461 347.364 383.123 344.297 385.033 344.238C387.391 344.159 390.153 347.157 390.18 349.837ZM336.612 349.945C336.612 347.162 338.778 344.697 341.242 344.676C343.1 344.676 345.287 347.482 345.308 349.919C345.335 352.855 343.531 354.952 340.981 354.957C338.432 354.965 336.59 352.899 336.59 349.945H336.612ZM201.173 213.138C201.629 211.753 202.274 210.445 202.456 209.076C202.648 207.57 203.651 207.135 204.755 206.889C205.244 206.789 205.75 206.859 206.196 207.084C206.641 207.309 206.997 207.678 207.207 208.128C207.466 208.658 207.563 209.25 207.491 209.833C207.417 210.414 207.176 210.965 206.797 211.413C205.341 213.192 203.449 213.617 201.173 213.138Z" fill="#2D2D2D"/>
<path d="M390.494 90.743C390.265 87.832 388.573 87.018 385.875 87.332C383.788 87.582 382.905 86.411 383.634 84.554C384.267 82.957 383.596 81.605 382.825 80.296C379.866 75.469 376.493 70.908 372.745 66.666C363.516 55.888 353.515 45.957 341.184 38.676C336.564 35.946 331.87 33.386 326.686 31.794C324.69 31.182 323.285 31.459 321.971 33.04C315.302 41.023 308.665 49.033 302.401 57.4C292.975 70.045 285.727 83.856 279.542 98.269C276.945 104.32 275.758 110.59 279.063 116.897C281.644 121.83 286.025 124.747 290.692 127.317C294.822 129.59 294.886 129.563 292.236 133.369C290.591 135.732 288.052 135.556 285.817 134.891C279.377 132.975 273.539 129.611 267.445 126.849C265.742 126.077 264.081 125.13 262.123 125.162C261.702 125.162 261.271 125.22 261 124.694C256.153 115.231 255.782 105.599 259.887 95.799C260.419 94.479 261.963 92.638 260.329 91.914C259.009 91.329 258.2 93.617 257.631 94.985C254.533 102.255 253.33 109.701 255.502 117.482C256.268 120.526 257.911 123.278 260.228 125.396C252.415 130.559 246.465 137.775 239.445 143.784C237.938 145.072 236.555 146.499 235.091 147.834C232.893 149.841 232.6 151.294 234.521 153.625C237.89 157.718 241.44 161.651 244.932 165.664C247.167 168.24 249.365 170.853 251.627 173.413C252.191 174.046 252.692 174.85 254.07 175.052C253.059 172.391 251.409 170.47 249.876 168.543C245.771 163.558 242.021 158.291 238.657 152.779C238.237 152.071 237.183 151.448 238.567 150.389C244.543 145.828 249.456 140.176 254.443 134.603C256.72 132.065 258.855 128.584 261.745 127.631C264.634 126.679 266.992 130.681 269.76 132.235C273.975 134.604 278.222 136.759 283.156 137.754C279.201 144.631 273.906 150.134 268.786 155.797C268.083 156.574 266.875 157.186 267.546 158.458C268.216 159.73 269.483 159.336 270.489 159.181C276.524 158.255 282.56 157.393 288.696 157.531C289.436 157.531 290.602 157.606 290.463 156.504C290.357 155.621 289.26 156.036 288.611 156.009C282.747 155.768 276.873 156.01 271.048 156.733C274.034 153.231 276.62 150.203 279.201 147.153C279.801 146.485 280.366 145.787 280.894 145.062C283.486 141.336 286.067 137.658 291.666 138.829C292.305 140.804 291.363 143.241 291.602 145.706C291.874 148.63 292.421 151.522 293.236 154.343C293.454 155.089 293.289 156.286 294.301 156.276C295.392 156.276 295.051 155.046 295.163 154.322C295.988 149.027 295.301 143.763 294.668 138.521C294.497 137.105 294.561 136.764 296.03 136.956C299.926 137.462 303.817 137.69 307.697 136.583C308.921 136.232 309.825 135.748 310.475 134.561C303.859 131.288 296.834 128.834 290.719 124.619C287.392 122.33 284.109 120.021 281.948 116.423C278.355 110.43 279.75 104.432 282.177 98.7C285.657 90.477 289.968 82.643 294.545 74.963C295.556 73.26 297.004 73.898 298.303 73.707C299.602 73.515 300.187 74.569 300.368 75.697C300.495 76.528 300.762 77.118 301.683 77.028C302.976 76.895 302.545 75.825 302.529 75.128C302.47 72.531 300.671 71.104 297.297 70.96C297.803 69.268 299.032 68.033 299.873 66.58C300.019 66.302 300.239 66.07 300.51 65.911C300.781 65.752 301.092 65.672 301.406 65.681C303.194 65.681 304.982 65.5 306.771 65.505C307.526 65.505 308.511 66.107 308.835 65.095C309.064 64.382 308.149 63.903 307.58 63.525C306.393 62.743 305.349 61.636 303.566 61.891C304.163 59.991 305.456 58.826 306.307 57.4C306.84 56.521 307.537 56.42 308.596 56.83C318.304 60.476 327.044 66.303 334.143 73.861C338.4 78.406 338.933 83.808 336.947 89.578C336.027 92.276 335.127 94.985 334.345 97.726C333.674 100.084 334.584 101.228 337.075 101.334C339.204 101.425 341.375 101.127 343.462 102.021C346.565 103.367 347.225 105.746 345.058 108.408C343.874 109.875 342.385 111.067 340.694 111.901C339.003 112.736 337.151 113.193 335.266 113.24C333.749 113.32 332.221 113.139 330.752 113.772C329.911 114.134 329.337 114.688 329.411 115.555C329.428 115.922 329.576 116.27 329.828 116.536C330.08 116.803 330.419 116.971 330.784 117.008C333.137 117.232 332.913 118.786 332.796 120.494C332.349 126.881 330.737 133.145 331.62 139.606C331.726 140.415 331.774 141.735 330.124 141.937C321.295 143.13 313.093 146.232 305.206 150.288C302.673 151.587 300.224 153.066 297.755 154.514C297.159 154.86 296.296 155.392 296.813 156.169C297.329 156.946 298.085 156.382 298.755 156.068C305.052 153.119 311.369 150.213 318.053 148.239C322.136 147.025 326.239 145.881 330.295 144.561C331.141 144.284 331.359 144.561 331.726 145.093C335.042 150.054 339.635 150.522 345.16 149.665C351.014 148.761 356.746 147.755 362.228 145.578C363.734 144.976 363.947 146.004 364.442 146.711C367.672 151.358 370.706 156.153 374.097 160.672C377.822 165.627 381.856 170.342 385.933 175.382C379.61 178.49 373.383 181.556 367.151 184.612C365.554 185.393 363.984 186.245 362.334 186.906C357.012 189.033 354.83 193.413 353.42 198.533C349.343 213.292 346.272 228.281 343.254 243.272C342.7 245.635 342.462 248.062 342.546 250.489C342.637 251.884 342.136 252.619 340.417 252.037C315.935 244.076 291.616 235.656 267.461 226.778C260.766 224.264 254.283 221.215 248.077 217.662C246.832 216.955 246.326 216.512 246.763 214.836C249.956 202.499 254.592 190.651 258.472 178.56C259.536 175.254 260.515 171.923 261.553 168.612C261.787 167.867 262.5 166.909 261.553 166.484C260.324 165.909 260.159 167.271 259.861 168C256.268 176.819 252.83 185.698 250.105 194.834C248.327 200.797 246.443 206.725 245.044 212.793C244.075 216.976 244.16 217.485 247.928 219.71C258.008 225.692 268.754 230.354 279.292 235.438C297.52 244.199 316.84 249.457 336.575 253.353C343.089 254.641 343.137 254.582 344.223 248.899C347.549 231.504 352.366 214.505 357.619 197.612C358.832 193.705 360.812 190.828 364.484 188.9C371.371 185.28 378.099 181.374 384.964 177.724C390.084 174.994 390.819 173.221 387.966 168.203C387.125 166.712 387.817 165.914 388.584 164.887C393.235 158.655 398.302 152.694 400.686 145.062C402.593 138.942 403.818 132.631 404.337 126.242C404.969 118.601 404.193 110.91 402.049 103.548C401.285 100.965 400.156 98.505 398.696 96.241C398.264 95.554 397.509 94.873 398.211 94.112C398.914 93.351 399.702 94.192 400.393 94.479C412.448 99.562 417.888 109.339 419.931 121.681C421.028 128.51 421.349 135.441 420.889 142.342C420.144 154.37 418.063 166.233 415.354 178.001C409.361 203.973 399.611 228.488 387.019 251.92C386.529 252.826 385.619 254.05 386.816 254.779C388.2 255.604 388.77 254.247 389.313 253.151C399.537 232.927 408.653 212.171 415.865 190.684C419.754 179.318 422.589 167.618 424.333 155.733C425.155 150.439 425.587 145.091 425.626 139.734C425.525 127.296 424.397 114.869 416.743 104.251C412.539 98.396 406.775 94.575 400.095 92.063C398.76 91.563 397.392 91.11 396.051 92.063C395.21 92.675 394.778 91.77 394.289 91.467C393.081 90.716 391.894 90.264 390.484 90.733C389.116 90.775 388.615 91.882 387.971 92.792C386.684 94.607 386.375 96.72 386.109 98.86C386.013 99.727 385.773 100.398 384.634 100.286C383.495 100.174 383.655 99.408 383.645 98.726C383.537 97.292 383.56 95.851 383.714 94.421C384.006 92.664 384.602 90.882 386.087 89.759C387.572 88.635 388.456 90.541 389.712 90.722C389.972 90.75 390.233 90.757 390.494 90.743ZM375.31 99.546C376.992 100.611 378.317 102.01 380.866 101.595C382.234 101.372 383.889 103.554 385.906 102.303C386.439 101.989 386.263 102.702 386.364 102.947C387.008 104.512 387.961 105.608 389.834 105.076C391.431 104.608 392.815 101.797 392.421 100.211C392.261 99.546 391.974 98.945 391.293 98.875C390.611 98.806 390.228 99.371 390.148 100.073C390.026 101.015 389.813 101.92 388.706 102.399C388.115 99.706 388.174 97.247 389.494 94.948C390.744 92.819 391.974 92.67 393.751 94.415C395.074 95.758 396.089 97.373 396.726 99.147C401.564 111.489 402.219 124.135 399.345 136.988C396.742 148.633 391.085 158.734 383.325 167.857C380.075 163.767 377.223 159.376 374.809 154.743C372.76 150.756 370.664 146.759 367.305 143.635C365.554 141.996 363.58 141.458 361.382 142.246C355.994 144.08 350.442 145.392 344.803 146.163C341.301 146.695 337.522 148.239 334.574 144.135C333.158 142.161 333.477 140.894 334.813 139.638C347.485 127.716 359.024 114.709 370.845 101.978C371.77 100.983 372.345 99.509 374.198 100.685C374.767 101.042 375.603 100.589 375.32 99.535C373.415 98.295 371.707 96.874 372.361 94.272C372.894 92.143 373.628 90.014 376.688 89.519C374.895 92.862 375.539 96.241 375.31 99.546ZM338.837 98.572C339.821 95.868 340.721 93.362 341.657 90.865C344.441 83.462 343.18 76.73 338.012 70.859C330.598 62.429 321.034 57.554 310.267 54.962C308.75 54.595 308.319 54.542 309.426 53.115C313.977 47.224 318.474 41.273 322.945 35.339C323.626 34.439 324.329 33.982 325.404 34.807C327.479 36.404 329.933 37.329 332.269 38.458C345.969 45.073 357.028 54.983 367.018 66.229C371.276 71.019 375.166 76.059 379.259 80.966C381.319 83.441 379.557 85.086 378.684 86.948C378.008 88.401 376.992 88.907 375.363 87.71C374.357 86.975 373.085 87.811 372.218 88.609C370.461 90.232 369.557 92.425 370.062 94.666C370.594 97.007 369.833 98.2 368.199 99.865C360.184 108.019 352.43 116.428 344.606 124.768C341.136 128.467 337.719 132.219 334.281 135.945C335.961 130.549 336.743 124.914 336.596 119.265C336.548 117.668 337.432 117.354 338.656 117.061C342.626 116.119 346.006 114.241 348.135 110.611C350.972 105.821 348.667 100.621 343.292 99.152C341.902 98.774 340.487 98.79 338.837 98.572ZM380.499 99.791C377.535 99.009 377.476 96.752 377.774 94.655C378.12 92.249 378.423 89.62 381.079 88.38C381.376 88.261 381.701 88.235 382.014 88.303C382.326 88.371 382.61 88.532 382.83 88.763C383.362 89.253 382.937 89.732 382.681 90.2C381.119 93.148 380.366 96.457 380.499 99.791Z" fill="#2D2D2D"/>
<path d="M435.579 144.731C435.775 128.764 433.066 114.879 424.934 102.563C417.893 91.9191 408.148 84.7711 395.492 82.1471C392.995 81.6151 390.356 81.0301 387.742 81.5461C387.083 81.6741 385.853 81.6311 385.986 82.7541C386.082 83.6001 387.051 83.5041 387.769 83.5631C399.254 84.4791 409.186 88.8851 417.376 97.0021C423.928 103.5 427.42 111.659 429.516 120.462C431.645 129.446 431.789 138.648 431.145 147.759C430.155 161.672 426.887 175.206 422.975 188.575C416.578 210.34 407.299 231.15 395.385 250.458C394.683 251.602 393.9 252.698 393.139 253.804C392.681 254.469 391.958 255.204 392.974 255.844C393.9 256.428 394.645 255.939 395.167 255.002C396.524 252.585 397.929 250.212 399.292 247.785C409.303 230.052 418.946 212.127 426.046 192.965C430.172 181.947 433.028 170.495 434.562 158.83C435.211 153.678 435.712 148.531 435.579 144.731Z" fill="#2D2D2D"/>
<path d="M137.908 75.9739C140.568 76.4099 142.406 74.7549 144.006 72.9139C152.231 63.4879 160.377 53.9989 168.579 44.5519C170.996 41.7629 173.502 39.0589 175.952 36.3019C176.397 35.8019 177.409 35.2909 176.866 34.6039C176.323 33.9179 175.391 34.4179 174.739 34.9079C170.806 37.7599 167.112 40.9259 163.695 44.3759C156.086 52.0459 148.931 60.1529 142.268 68.6559C139.265 72.4829 138.338 72.6149 134.367 69.6779C129.647 66.1809 125.635 61.8969 121.419 57.8469C120.221 56.6969 120.185 55.4829 120.792 53.9509C122.586 49.4159 125.976 46.0099 128.95 42.3479C136.51 32.9519 144.784 24.1515 153.693 16.0245C154.269 15.4923 155.38 14.8216 154.783 14.135C154.003 13.2249 153.012 14.0871 152.208 14.6992C142.383 22.1504 134.055 31.0169 126.785 40.9319C123.874 44.9079 120.892 48.8359 117.896 52.7479C115.623 55.7229 115.234 58.4269 117.54 61.3649C122.105 67.3019 127.955 72.1299 134.652 75.4839C135.678 75.9199 136.799 76.0879 137.908 75.9739Z" fill="#FC4731"/>
<path d="M209.657 344.169C210.164 344.31 210.66 344.489 211.142 344.702C212.258 345.288 213.456 345.687 214.216 344.395C214.979 343.102 214.032 342.16 213.021 341.494C208.518 338.545 203.971 335.665 199.463 332.706C196.314 330.642 193.286 328.374 190.065 326.421C188.368 325.389 188.501 324.511 189.356 323.026C197.389 309.187 205.405 295.317 212.829 281.129C222.61 262.449 232.641 243.899 242.92 225.485C243.724 224.039 245.741 221.676 244.288 220.872C242.691 220.004 241.839 222.915 241.068 224.366C223.856 256.53 204.685 287.601 187.984 320.044C184.467 326.879 184.318 327.14 190.646 331.753C196.765 336.277 203.139 340.452 209.731 344.256L209.657 344.169Z" fill="#2D2D2D"/>
<path d="M268.637 257.636C277.535 257.636 286.109 259.82 294.716 261.714C301.31 263.166 307.946 264.023 314.679 263.55C319.863 263.176 324.147 260.596 328.08 257.393C328.714 256.86 329.453 256.136 328.927 255.337C328.33 254.421 327.303 254.805 326.521 255.273C324.062 256.727 321.582 258.133 318.745 258.701C313.226 259.812 307.717 259.372 302.214 258.489C293.944 257.168 285.774 255.376 277.349 254.843C273.076 254.564 268.788 254.585 264.517 254.902C256.172 255.524 252.713 260.511 255.363 268.462C258.014 276.414 263.65 281.987 269.536 287.447C275.683 293.131 282.762 297.559 289.558 302.403C290.09 302.769 290.708 304.19 291.714 302.869C292.719 301.55 291.229 301.417 290.708 300.959C282.932 294.18 274.119 288.617 267.146 280.884C263.485 276.818 259.865 272.704 258.221 267.339C256.284 261.033 258.801 257.69 265.401 257.636H268.637Z" fill="#2D2D2D"/>
<path d="M258.546 79.5401C257.748 78.4121 257.801 77.1291 257.514 75.9261C257.446 75.7221 257.332 75.5371 257.179 75.3871C257.026 75.2361 256.84 75.1241 256.636 75.0591C256.023 74.9791 256.071 75.5911 256.045 76.0221C256.011 76.5541 256.011 77.0871 256.045 77.6191C256.162 79.3911 256.045 81.5891 258.285 81.9141C260.909 82.2861 261.479 79.8331 261.857 78.0181C262.32 76.2631 262.248 74.4091 261.649 72.6961C259.988 68.5811 255.853 67.5591 252.298 70.7961C249.105 73.7231 245.549 76.2831 242.718 79.6681C236.863 86.6401 232.074 94.1281 230.876 103.335C230.267 108.696 230.411 114.115 231.302 119.435C232.297 125.955 233.707 132.384 236.587 138.393C236.78 138.982 237.024 139.554 237.316 140.101C237.848 140.825 238.05 142.379 239.312 141.772C240.44 141.24 239.381 140.085 239.093 139.484C235.022 131.032 233.771 122.054 234.495 112.846C235.602 98.9551 240.078 86.3421 249.823 75.9901C251.037 74.7021 251.994 73.1961 253.549 72.1901C254.826 71.3651 256.008 70.1891 257.615 70.8911C259.403 71.6741 259.808 73.4831 259.791 75.1921C259.869 76.7391 259.431 78.2681 258.546 79.5401Z" fill="#2D2D2D"/>
<path d="M131.738 210.742C133.656 208.389 133.927 205.952 132.537 203.505C131.149 201.055 129.084 199.619 126.183 199.816C124.586 199.924 123.805 199.657 123.283 197.799C122.115 193.641 119.189 192.185 112.95 192.136C114.463 189.038 115.894 186.038 115.564 182.503C115.16 178.208 111.988 174.764 107.72 174.381C107.454 174.355 107.188 174.355 106.911 174.317C102.818 173.732 103.463 174.647 104.249 170.592C104.979 167.256 104.938 163.797 104.129 160.48C102.844 155.637 96.712 152.922 92.419 155.221C91.887 155.503 91.093 155.839 91.354 156.573C91.615 157.308 92.322 156.914 92.924 156.781C98.246 155.637 101.707 157.281 100.668 164.445C100.258 167.714 99.677 170.96 98.927 174.168C98.394 176.239 100.14 177.569 102.365 177.218C104.292 176.915 106.033 175.659 108.086 176.1C112.223 176.989 114.835 181.517 113.734 185.91C113.219 187.799 112.431 189.607 111.391 191.268C110.329 193.063 110.365 194.115 112.894 193.828C114.778 193.608 116.683 194.023 118.306 195.011C119.903 195.973 120.738 197.325 120.111 199.299C119.957 200 119.86 200.712 119.811 201.429C119.332 204.452 120.477 205.415 123.377 204.334C124.604 203.781 125.94 203.51 127.284 203.541C130.307 203.766 131.766 205.292 131.766 208.331L131.738 210.742Z" fill="#FC4731"/>
<path d="M157.392 12.5703C167.281 9.21206 176.915 6.01337 187.495 5.69927C184.94 11.0215 182.449 16.035 180.107 21.1338C179.042 23.3904 178.346 25.7959 177.414 28.1059C177.025 29.0799 177.02 29.9849 177.995 30.4159C178.968 30.8469 179.446 30.0109 179.851 29.2819C184.057 21.7193 188.081 14.0551 191.56 6.14116C193.247 2.32516 190.997 0.137667 186.568 0.941267C179.661 2.23147 172.911 4.26387 166.439 7.00337C164.14 7.95587 161.88 9.00987 159.642 10.1007C158.818 10.5001 157.753 10.7556 157.392 12.5703Z" fill="#FC4731"/>
<path d="M294.535 158.393C292.778 159.25 292.773 160.559 292.342 161.555C286.839 174.179 283.193 187.362 280.367 200.817C278.706 208.73 275.63 216.251 273.517 224.069C273.251 225.06 271.676 226.955 273.719 227.492C275.225 227.892 275.183 225.826 275.561 224.74C278.392 216.597 279.978 208.069 283.086 200.013C286.604 190.874 290.075 181.719 292.007 172.087C292.895 167.67 294.135 163.3 294.535 158.393Z" fill="#2D2D2D"/>
<path d="M108.104 99.839C107.731 98.407 108.327 96.715 106.433 96.427C104.538 96.14 103.978 97.492 103.202 98.727C98.9108 105.433 94.8358 112.266 91.0388 119.265C90.7218 119.851 90.1408 120.383 90.5558 122.001C94.8128 115.289 98.3888 108.775 103.376 103.288C105.352 105.725 105.846 105.688 107.938 103.16C110.961 99.509 113.841 95.736 117.3 92.298C118.014 95.986 119.647 96.944 122.297 94.927C127.668 90.839 132.798 86.4379 135.402 79.9129C135.714 79.1299 136.763 77.975 135.402 77.326C134.293 76.794 133.981 78.2149 133.533 78.8159C130.548 82.8559 126.577 85.826 122.76 88.966C122.399 89.264 121.967 90.3389 121.329 89.4289C119.732 87.1399 118.631 88.716 117.523 89.865C114.489 93.09 111.419 96.353 108.104 99.839Z" fill="#FC4731"/>
<path d="M309 172.545C306.511 167.747 303.182 163.433 299.17 159.809L297.797 158.527C297.625 158.315 297.378 158.178 297.108 158.144C296.838 158.109 296.564 158.179 296.344 158.34C295.849 158.745 295.998 159.346 296.344 159.782C300.527 164.785 302.731 170.959 306.004 176.457C306.685 177.612 307.601 178.314 309.064 178.187C310.528 178.059 310.757 176.915 311.193 175.829C314.583 167.447 318.964 159.724 326.292 154.077C328.512 152.369 331.189 151.586 333.796 150.692C334.281 150.527 334.941 150.586 334.92 149.819C334.92 148.861 334.137 148.989 333.546 148.984C328.224 148.952 324.126 151.57 320.566 155.083C315.722 159.9 312.082 165.626 309 172.545Z" fill="#2D2D2D"/>
<path d="M151.873 47.3349C157.51 47.3349 161.549 42.5449 161.393 36.0359C161.293 31.5339 157.249 28.5849 153.583 28.4469C148.365 28.2869 143.197 33.5239 143.187 38.7509C143.176 43.7369 146.822 47.3409 151.873 47.3349ZM148.993 37.2659C148.993 33.4549 151.788 30.3469 155.103 30.4429C156.76 30.4849 158.211 32.9069 158.216 35.6209C158.216 39.2299 155.828 42.0079 152.751 41.9649C150.073 41.9549 148.987 40.5659 148.993 37.2659Z" fill="#FC4731"/>
<path d="M84.685 122.783C80.428 121.899 78.649 124.134 76.936 126.508C76.616 126.945 76.783 127.988 75.541 127.44C71.407 125.609 68.24 127.535 65.59 130.484C64.18 132.08 63.56 132.416 61.9961 130.447C57.1526 124.358 48.2925 124.326 42.96 130.159C40.9427 132.442 39.4067 135.108 38.4467 137.999C38.1165 138.925 37.6736 140.234 38.8333 140.564C39.9955 140.894 39.9674 139.335 40.144 138.643C40.8992 135.476 42.7654 132.685 45.4022 130.777C50.2995 127.243 56.8454 128.61 60.1222 133.725C60.8109 134.865 61.4253 136.047 61.9654 137.264C62.109 137.645 62.365 137.973 62.7 138.201C63.038 138.43 63.437 138.549 63.844 138.542C64.211 138.53 64.561 138.394 64.838 138.154C65.114 137.915 65.301 137.588 65.365 137.227C65.898 134.508 67.984 133.076 69.942 131.527C71.796 130.063 73.529 129.27 75.569 131.452C76.872 132.847 78.762 132.261 78.623 130.59C78.25 126.402 80.758 124.512 84.685 122.783Z" fill="#FC4731"/>
<path d="M152.016 85.4419C150.521 82.3559 149.259 79.7049 147.961 77.0759C147.626 76.3999 147.254 75.4369 146.274 75.9099C145.439 76.3199 145.9 77.0809 146.156 77.7779C147.715 81.8339 149.069 85.9659 150.211 90.1579C150.554 91.5199 151.512 92.6329 153.017 92.6539C154.522 92.6749 155.492 91.6909 155.971 90.3069C157.456 85.9959 158.101 81.4989 158.728 77.0009C159.494 71.3539 160.1 65.6919 160.771 60.0289C160.825 59.5869 160.874 59.1399 160.909 58.6929C160.958 58.1069 160.815 57.5219 160.175 57.4529C159.734 57.3999 159.435 57.8089 159.286 58.3049C158.851 59.7519 158.355 61.1779 157.886 62.6099C155.472 69.9709 153.875 77.5389 152.016 85.4419Z" fill="#FC4731"/>
<path d="M106.458 78.236C109.566 72.259 113.483 67.421 116.944 62.296C115.879 61.593 115.533 62.343 115.091 62.886C110.769 68.166 107.295 74.031 103.532 79.699C102.782 80.827 102.334 82.057 104.006 83.047C105.214 83.765 103.926 84.372 103.622 84.878C99.7885 91.142 95.9565 97.406 92.4925 103.883C90.5165 107.488 89.0135 111.335 88.0285 115.326C87.7875 116.348 87.3395 118.099 88.4275 118.477C89.7895 118.956 90.1715 117.168 90.5555 116.204C94.0135 107.588 97.8355 99.173 102.547 91.142C104.346 88.027 106.456 85.099 108.836 82.403C109.773 81.338 111.297 80.487 110.467 78.795C109.743 77.326 108.225 77.89 106.458 78.236Z" fill="#FC4731"/>
<path d="M215.304 344.256C218.891 341.924 221.067 338.486 223.409 335.276C231.222 324.575 238.907 313.78 246.609 302.997C247.434 301.842 248.045 300.534 248.785 299.321C249.094 298.814 249.318 298.256 248.828 297.867C248.258 297.436 247.875 298.069 247.497 298.399C245.257 300.373 243.58 302.833 241.803 305.201C232.941 317.015 224.048 328.809 216.001 341.218C215.443 342.057 214.616 342.851 215.304 344.256Z" fill="#2D2D2D"/>
<path d="M35.4928 179.832C35.4928 185.91 39.5324 191.898 44.4808 193.372C47.7116 194.33 50.3791 192.51 50.6172 189.113C50.8681 185.436 49.2553 182.364 47.2176 179.502C46.6262 178.671 45.8914 177.969 45.3436 177.043C43.9177 174.626 40.7946 173.152 38.7491 173.945C36.0202 175.01 35.2521 177.304 35.4928 179.832ZM47.4301 185.49C47.3712 187.198 47.7269 188.56 46.6312 189.294C45.5356 190.029 44.7574 188.974 44.0944 188.363C41.2298 185.703 39.7987 182.275 39.3021 178.48C39.0742 176.633 40.244 176.111 42.118 176.968C46.0476 178.735 47 182.242 47.4301 185.49Z" fill="#2D2D2D"/>
<path d="M89.6719 153.886C93.3969 151.022 95.2989 147.137 96.0259 142.613C96.2229 141.394 95.8729 139.979 94.8129 139.553C92.5879 138.648 93.9679 137.706 94.5899 136.833C97.6129 132.576 100.627 128.35 101.077 122.926C101.238 121 100.893 119.132 99.1519 117.934C97.9159 117.093 96.5689 116.689 95.1279 117.615C94.5309 118.003 93.6759 118.227 94.0629 119.164C94.4209 119.989 95.0429 119.504 95.6599 119.361C97.8899 118.828 98.8519 119.824 98.7679 122.059C98.6709 123.767 98.0359 125.4 96.9529 126.726C94.2289 130.404 91.4229 134.029 88.6559 137.68C88.1239 138.393 87.5909 139.111 87.0919 139.872C86.4849 140.841 86.2289 141.905 87.1329 142.805C87.8779 143.545 88.7299 143.656 89.8389 143.215C91.0339 142.741 92.5469 141.261 93.4889 142.182C94.7329 143.406 93.4889 145.232 93.0689 146.727C92.3299 149.271 90.3869 151.251 89.6719 153.886Z" fill="#FC4731"/>
<path d="M102.995 46.3082C109.003 43.5142 114.824 40.8422 120.615 38.1012C123.121 36.9142 125.571 35.5942 128.034 34.3172C128.566 34.0292 129.26 33.6092 128.886 32.9012C128.595 32.3692 127.821 32.6092 127.407 32.8212C118.099 37.3402 108.081 40.1022 98.6679 44.4182C97.5389 44.9512 96.5638 45.6432 96.6328 46.9782C96.7068 48.3942 97.7408 49.1712 99.0188 49.5702C101.965 50.5022 105.058 50.0552 108.066 50.4702C110.05 50.7412 112.09 51.5342 114.794 50.7782C111.079 48.1282 106.474 49.1612 102.995 46.3082Z" fill="#FC4731"/>
<path d="M90.2938 189.817C94.7028 188.293 96.9628 182.057 94.4668 178.639C93.5248 177.346 92.3398 176.335 90.6448 176.579C88.3558 176.92 87.8828 175.978 87.7498 173.823C87.6398 171.944 87.5218 169.937 86.4418 168.149C85.9218 167.202 85.1408 166.425 84.1908 165.911C83.2418 165.397 82.1638 165.166 81.0888 165.249C79.8238 165.267 78.5848 165.581 77.4658 166.168C76.3478 166.754 75.3818 167.595 74.6478 168.623C74.5018 168.798 74.4198 169.016 74.4118 169.243C74.4038 169.471 74.4708 169.694 74.6038 169.879C75.0188 170.411 75.5408 170.209 76.0378 169.879C77.1388 169.128 78.1648 168.282 79.4758 167.83C81.1778 167.244 82.6678 167.26 83.9348 168.543C84.5568 169.136 84.9878 169.901 85.1718 170.74C85.3558 171.579 85.2868 172.454 84.9718 173.253C84.5418 174.515 84.0838 175.765 83.6588 177.027C83.2308 178.288 82.7368 179.422 83.8068 180.55C85.0518 181.865 86.4158 181.338 87.7728 180.779C89.1298 180.22 90.4018 179.815 91.4978 180.986C92.5928 182.157 93.2378 183.647 92.4598 185.408C92.1988 186.161 91.8408 186.878 91.3978 187.538C90.8908 188.15 90.1198 188.767 90.2938 189.817Z" fill="#FC4731"/>
<path d="M312.268 97.8379C309.825 99.9669 310.953 104.698 306.413 104.624C303.678 104.586 302.975 101.909 301.171 99.919C303.544 99.88 305.896 99.4719 308.143 98.7109C309.17 98.3809 310.115 97.8369 310.916 97.1139C311.576 96.4749 312.332 95.634 311.741 94.809C310.996 93.745 310.277 94.751 309.532 95.225C306.509 97.125 303.119 97.354 299.702 97.029C297.728 96.832 297.041 97.5339 297.169 99.3919C297.366 102.718 298.691 105.502 301.427 107.375C305.589 110.276 311.539 107.029 312.289 101.521C312.365 100.294 312.358 99.0639 312.268 97.8379Z" fill="#2D2D2D"/>
<path d="M69.9316 112.937C70.5946 112.744 71.2116 112.416 71.7446 111.973C72.2746 111.531 72.7066 110.983 73.0166 110.364C73.3266 109.746 73.5026 109.07 73.5366 108.379C73.5696 107.689 73.4616 106.999 73.2166 106.353C72.4866 104.192 69.2816 102.718 66.8986 103.852C65.3006 104.613 64.4816 104.283 63.2626 103.202C60.4803 100.733 55.5241 100.733 53.151 102.963C52.15 103.889 51.4383 104.921 51.6355 106.459C57.5951 103.213 57.5798 103.224 62.0496 108.977C63.2146 110.478 64.6296 110.627 65.8386 109.051C67.0466 107.476 68.2446 105.565 70.2416 106.827C72.6046 108.322 71.1736 110.398 70.0446 112.149C69.9366 112.282 69.9756 112.49 69.9316 112.937Z" fill="#FC4731"/>
<path d="M124.683 74.2649C122.435 76.0909 120.164 77.8949 117.945 79.7579C117.103 80.4609 116.516 81.1999 115.283 80.1679C114.138 79.2259 112.889 79.8269 111.972 80.8859C108.509 84.9149 106.118 89.6519 103.33 94.1169C103.089 94.5059 102.936 95.0059 103.384 95.3259C104.052 95.8099 104.554 95.3259 104.979 94.8569C107.236 92.3019 109.476 89.7319 111.74 87.1819C112.548 86.2719 113.201 85.1809 114.824 85.6709C115.958 86.0059 116.852 85.1389 117.64 84.3989C120.625 81.5679 122.228 77.6609 125.389 74.9569L124.683 74.2649Z" fill="#FC4731"/>
<path d="M89.5193 120.419C87.8093 121.266 87.4583 123.006 86.6133 124.432C81.2273 133.48 77.8143 143.294 75.3393 153.465C75.1473 154.253 74.5893 155.163 75.7383 155.466C76.5523 155.674 76.8833 154.828 77.1183 154.114C80.0013 145.429 84.7243 137.429 86.5853 128.344C87.1433 125.614 88.5183 123.054 89.5193 120.419Z" fill="#FC4731"/>
<path d="M174.449 33.8112C174.572 33.8462 174.698 33.8532 174.823 33.8312C174.948 33.8092 175.066 33.7602 175.169 33.6862C175.271 33.6122 175.356 33.5162 175.414 33.4052C175.473 33.2942 175.509 33.1712 175.514 33.0452C175.609 32.6912 175.578 32.3162 175.43 31.9822C175.281 31.6472 175.02 31.3742 174.695 31.2092C168.011 27.4832 163.774 21.1605 158.541 15.8915C158.111 15.4604 157.702 14.7259 157.008 15.0559C156.317 15.3859 156.609 16.0937 156.849 16.6953C159.573 23.4916 164.204 28.6912 170.287 32.6622C171.495 33.5232 172.97 33.9302 174.449 33.8112Z" fill="#FC4731"/>
<path d="M298.686 82.4669C303.476 82.5729 306.281 80.4279 307.25 76.1649C307.409 75.4629 307.718 74.6059 306.904 74.2439C305.839 73.7759 305.914 74.9149 305.642 75.4469C303.849 78.9059 302.422 79.5129 298.191 78.5439C293.87 77.5549 291.922 79.5449 292.975 83.8659C293.928 87.7629 296.552 90.4339 299.628 90.5879C300.272 90.6199 301.225 91.0409 301.406 90.0559C301.518 89.3859 300.703 89.1729 300.091 88.9919C298.175 88.3899 296.94 87.2839 296.504 85.1379C296.073 82.8449 296.185 81.5669 298.686 82.4669Z" fill="#2D2D2D"/>
<path d="M336.096 199.184C334.537 197.018 336.522 197.156 337.804 196.782C339.087 196.411 340.503 196.086 340.306 194.499C340.093 192.807 338.592 192.638 337.171 192.776C335.851 192.909 334.994 192.668 334.744 191.109C334.611 190.28 333.983 189.512 333.461 188.782C333.041 188.209 332.44 187.72 331.62 188.002C330.8 188.283 330.614 188.954 330.683 189.737C330.859 191.76 330.853 193.605 328.171 194.048C327.405 194.174 327.266 195.111 327.41 195.861C327.554 196.613 328.011 197.146 328.677 197.023C331.242 196.56 332.014 198.085 332.573 200.141C332.823 201.078 333.451 202.084 334.664 201.739C335.723 201.403 335.968 200.348 336.096 199.184Z" fill="#2D2D2D"/>
<path d="M339.342 155.62C339.342 155.86 339.342 155.998 339.38 156.03C341.95 157.85 341.093 159.974 340.061 162.22C339.789 162.805 340.263 163.689 340.934 163.982C341.302 164.17 341.726 164.22 342.129 164.122C342.531 164.025 342.885 163.786 343.126 163.449C344.409 161.586 345.74 161.89 347.331 163.055C348.3 163.763 349.635 164.093 350.439 162.922C351.174 161.858 350.668 160.554 349.721 159.804C348.204 158.595 347.624 157.403 348.779 155.615C349.369 154.689 348.72 153.901 348.001 153.337C346.937 152.496 345.846 153.034 345.154 153.827C344.09 155.035 343.265 155.631 341.657 154.567C340.753 153.981 339.529 154.21 339.342 155.62Z" fill="#2D2D2D"/>
<path d="M329.629 233.209C329.781 233.754 330.012 234.276 330.316 234.755C331.529 236.263 331.912 237.62 330.188 239.074C329.709 239.483 329.272 240.264 329.964 240.983C330.2 241.268 330.537 241.447 330.904 241.485C331.271 241.524 331.638 241.419 331.928 241.191C333.551 239.78 334.616 240.579 335.739 241.846C336.051 242.245 336.5 242.514 336.999 242.604C337.498 242.691 338.012 242.591 338.443 242.325C339.507 241.639 339.081 240.456 338.549 239.662C337.426 238.068 337.878 236.964 339.284 235.83C340.316 234.996 340.933 233.826 339.933 232.525C338.82 231.079 337.399 231.504 336.399 232.451C335.047 233.718 334.11 233.516 332.945 232.318C332.621 232 332.214 231.783 331.771 231.688C331.328 231.593 330.868 231.629 330.443 231.785C329.868 231.957 329.608 232.43 329.629 233.209Z" fill="#2D2D2D"/>
<path d="M306.829 220.828C306.669 220.148 306.909 219.29 308.096 218.699C309.16 218.166 309.612 217.006 308.947 215.975C308.696 215.542 308.295 215.22 307.82 215.068C307.346 214.915 306.831 214.946 306.377 215.15C304.929 215.831 303.939 215.606 303.093 214.16C302.417 213 301.24 212.265 299.899 213C298.436 213.809 298.941 215.284 299.543 216.295C300.442 217.81 300.304 218.875 298.936 219.922C298.345 220.375 297.989 221.026 298.404 221.801C298.899 222.702 299.804 222.679 300.533 222.446C301.672 222.078 302.662 221.604 303.619 222.841C304.2 223.575 304.982 224.469 306.11 223.947C307.239 223.424 306.989 222.285 306.829 220.828Z" fill="#2D2D2D"/>
<path d="M266.422 70.2251C268.642 69.7891 270.542 69.8951 271.255 72.6151C271.968 75.3351 271.016 78.3211 268.988 79.2571C268.573 79.4491 268.035 79.4911 268.094 80.0401C268.152 80.5881 268.732 80.7901 269.297 80.8751C270.76 81.1041 271.612 80.4121 272.32 79.1931C273.176 77.7141 273.235 76.0001 273.799 74.1691C275.571 75.4571 276.487 76.7931 275.88 78.8161C275.31 80.7261 273.98 81.4771 272.038 81.4231C271.25 81.4231 269.909 80.8911 269.866 82.1741C269.866 83.2061 271.01 83.5311 272.123 83.5841C274.523 83.6961 276.407 82.8341 277.418 80.6731C278.483 78.4061 278.664 76.0961 277.253 73.7541C275.587 70.9811 273.192 70.3961 271.436 68.7891C270.297 67.7241 268.945 67.6711 267.418 68.2561C266.252 68.7191 266.146 69.3211 266.502 70.2951L266.422 70.2251Z" fill="#2D2D2D"/>
<path d="M121.782 162.491C123.516 162.103 124.867 162.933 125.804 164.578C126.795 166.307 126.426 167.83 125.064 169.192C124.767 169.49 124.245 169.825 124.619 170.256C125.069 170.789 125.538 170.411 125.996 170.081C129.386 167.617 128.167 161.214 123.825 159.165C123.28 158.975 122.801 158.63 122.448 158.174C122.095 157.718 121.88 157.17 121.828 156.595C121.117 152.8 116.604 151.118 113.378 153.188C112.845 153.518 112.136 153.827 112.413 154.588C112.733 155.471 113.511 154.998 114.01 154.822C114.868 154.529 115.725 154.141 116.614 154.396C118.529 154.929 118.972 156.169 118.46 158.122C117.566 161.603 118.406 162.656 121.782 162.491Z" fill="#FC4731"/>
<path d="M266.497 133.837C265.103 134.247 263.416 134.689 262.612 132.293C262.367 131.57 261.42 131.484 260.723 131.841C260.382 131.988 260.109 132.258 259.961 132.599C259.812 132.939 259.799 133.323 259.924 133.672C260.787 135.455 259.786 136.472 258.658 137.541C258.211 137.967 257.694 138.473 257.934 139.138C258.173 139.803 258.924 139.888 259.53 139.755C261.399 139.351 262.037 140.639 262.75 141.921C263.176 142.693 263.634 143.582 264.773 143.247C265.912 142.911 266.024 141.868 265.752 141.049C265.023 138.84 266.721 138.435 268.003 137.637C268.946 137.052 269.829 136.291 269.499 135.04C269.142 133.704 267.924 133.837 266.497 133.837Z" fill="#2D2D2D"/>
<path d="M374.214 166.739C374.001 166.717 373.786 166.738 373.581 166.8C373.376 166.862 373.185 166.963 373.02 167.098C372.854 167.234 372.717 167.401 372.616 167.589C372.515 167.778 372.452 167.984 372.43 168.197C372.287 169.921 371.366 170.203 369.892 170.124C368.7 170.06 367.3 170.241 367.108 171.63C366.917 173.019 368.205 173.226 369.306 173.445C370.616 173.7 371.557 174.232 371.393 175.898C371.324 176.585 371.531 177.553 372.638 177.67C372.841 177.697 373.047 177.681 373.243 177.624C373.439 177.567 373.621 177.469 373.778 177.337C373.934 177.206 374.061 177.043 374.151 176.859C374.24 176.675 374.291 176.475 374.298 176.271C374.586 174.184 376.135 175.041 377.204 174.956C378.274 174.871 379.291 174.956 379.557 173.732C379.839 172.391 378.833 171.672 377.79 171.475C375.911 171.119 375.246 170.166 375.507 168.325C375.549 168.132 375.548 167.933 375.502 167.742C375.457 167.55 375.369 167.371 375.244 167.218C375.12 167.066 374.962 166.943 374.784 166.86C374.605 166.777 374.41 166.736 374.214 166.739Z" fill="#2D2D2D"/>
<path d="M300.485 177.745C300.442 176.824 301.374 176.532 301.81 175.898C302.513 174.887 303.518 173.897 302.406 172.599C301.4 171.428 300.277 171.923 299.319 172.646C298.361 173.37 297.871 173.11 297.19 172.253C297.043 172.05 296.857 171.879 296.643 171.749C296.429 171.62 296.191 171.533 295.944 171.496C295.697 171.458 295.444 171.47 295.201 171.53C294.958 171.591 294.73 171.699 294.529 171.848C293.529 172.524 293.731 173.599 294.205 174.509C294.88 175.781 295.269 176.878 293.992 178.07C293.861 178.196 293.758 178.348 293.687 178.515C293.616 178.682 293.58 178.862 293.58 179.044C293.58 179.225 293.616 179.405 293.687 179.573C293.758 179.74 293.861 179.891 293.992 180.018C294.212 180.25 294.515 180.386 294.835 180.396C295.155 180.406 295.466 180.289 295.7 180.071C296.898 179.044 297.552 179.794 298.276 180.667C299 181.54 299.745 182.587 300.937 181.847C302.273 181.008 301.406 179.81 300.969 178.772C300.825 178.432 300.66 178.118 300.485 177.745Z" fill="#2D2D2D"/>
<path d="M258.801 186.926C259.488 188.268 259.121 189.507 257.534 190.439C257.389 190.503 257.257 190.595 257.149 190.71C257.04 190.828 256.957 190.964 256.903 191.115C256.85 191.263 256.828 191.422 256.838 191.58C256.849 191.739 256.892 191.895 256.965 192.036C257.035 192.205 257.141 192.356 257.274 192.482C257.408 192.607 257.566 192.702 257.74 192.761C257.913 192.82 258.097 192.84 258.279 192.822C258.461 192.807 258.637 192.75 258.796 192.658C260.094 191.967 260.792 192.494 261.398 193.552C261.578 193.923 261.888 194.212 262.27 194.368C262.652 194.522 263.077 194.53 263.463 194.389C264.448 194.112 264.576 193.408 264.304 192.5C263.937 191.291 264.922 191.296 265.667 191.007C267.077 190.477 268.472 189.609 267.854 187.863C267.285 186.266 265.88 185.995 264.299 186.704C263.085 187.234 262.569 186.373 262.058 185.472C261.855 185.063 261.501 184.748 261.071 184.592C260.641 184.436 260.167 184.453 259.748 184.638C258.769 184.973 258.721 185.787 258.801 186.926Z" fill="#2D2D2D"/>
<path d="M35.0085 140.256C36.1426 137.738 35.2313 136.418 33.9692 135.157C32.4486 133.645 30.5798 133.491 28.7161 134.023C24.6073 135.2 21.9525 139.537 22.5285 143.816C22.6489 144.707 23.0482 145.538 23.6652 146.19C23.893 146.472 24.2054 146.673 24.5561 146.763C24.9094 146.853 25.278 146.828 25.6134 146.69C26.3762 146.419 26.3174 145.716 26.2841 145.093C26.2534 144.555 26.1714 144.02 26.0409 143.497C25.3804 140.665 26.5734 138.34 29.3407 136.956C31.9366 135.657 33.0655 137.642 34.3788 139.164C34.6143 139.513 34.8242 139.878 35.0085 140.256Z" fill="#FC4731"/>
<path d="M267.109 91.6581C268.999 91.3021 271.367 90.8281 272.708 88.4221C273.129 87.6721 273.895 86.8681 272.868 86.0541C271.841 85.2401 271.447 86.3631 270.925 86.8361C269.329 88.2891 267.562 89.2101 265.347 88.9391C265.004 88.9071 264.686 88.7451 264.459 88.4861C264.134 87.9541 264.629 87.6141 264.991 87.4221C266.024 86.8901 267.12 86.5121 268.184 86.0171C268.844 85.7031 269.509 85.2611 269.212 84.3771C268.913 83.4941 268.147 83.5851 267.402 83.7601C266.693 83.8701 265.996 84.0391 265.316 84.2661C263.384 85.1071 261.452 86.0701 261.553 88.6091C261.585 90.3861 263.889 91.6801 267.109 91.6581Z" fill="#2D2D2D"/>
<path d="M266.503 70.311C265.438 68.783 264.177 67.58 262.08 67.884C261.324 67.99 260.584 68.1709 260.483 69.0229C260.345 70.1459 261.266 69.933 261.952 70.05C264.054 70.412 265.678 73.7749 265.199 76.7879C265.023 77.8519 264.746 78.8799 264.512 79.9389C263.645 80.2629 263.096 78.395 262.245 79.438C261.627 80.194 262.484 80.9179 262.969 81.5249C263.73 82.4829 264.698 82.871 265.79 82.121C266.27 81.787 266.665 81.3439 266.942 80.8289C267.219 80.3139 267.371 79.741 267.386 79.156C267.53 76.133 267.775 73.078 266.412 70.22L266.503 70.311Z" fill="#2D2D2D"/>
<path d="M329.651 81.9339C329.539 78.8739 328.379 76.6759 326.09 75.1219C325.244 74.5529 324.105 74.3129 323.402 75.1219C322.615 76.0429 323.317 77.0009 324.062 77.6869C325.744 79.2309 326.399 81.1679 326.532 83.3929C326.585 84.2659 326.314 85.5909 327.767 85.6329C328.953 85.6759 328.991 84.5369 329.23 83.7119C329.422 83.0519 329.55 82.3599 329.651 81.9339Z" fill="#2D2D2D"/>
<path d="M319.32 86.0701C319.307 85.2941 319.093 84.5351 318.7 83.8661C318.306 83.1971 317.747 82.6411 317.075 82.2531C316.403 81.8651 315.642 81.6561 314.866 81.6491C314.09 81.6421 313.325 81.8361 312.646 82.2111C311.912 82.6161 311.513 83.1961 311.683 83.9141C311.965 85.0641 312.918 84.6431 313.668 84.4941C316.207 83.9941 317.218 84.7771 317.144 87.1881C317.144 88.0661 316.377 89.4181 317.995 89.3961C319.129 89.3961 319.294 88.1511 319.32 87.1401C319.326 86.7831 319.32 86.4261 319.32 86.0701Z" fill="#2D2D2D"/>
<path d="M136.444 199.312C135.156 199.189 134.534 199.45 134.239 200.236C134.186 200.387 134.165 200.546 134.178 200.707C134.193 200.866 134.242 201.019 134.321 201.157C134.401 201.296 134.508 201.416 134.639 201.506C134.769 201.598 134.918 201.662 135.076 201.69C137.439 202.292 137.647 203.564 136.444 205.415C136.211 205.778 135.911 206.203 136.31 206.603C136.513 206.789 136.779 206.892 137.053 206.892C137.329 206.892 137.593 206.789 137.795 206.603C139.024 205.494 139.882 204.217 139.467 202.396C139.334 201.639 138.973 200.935 138.435 200.384C137.895 199.834 137.201 199.46 136.444 199.312Z" fill="#FC4731"/>
<path d="M282.554 165.648C282.586 167.154 283.481 168.245 284.923 168.309C286.365 168.373 287.318 167.085 287.35 165.648C287.357 165.332 287.3 165.018 287.182 164.725C287.063 164.431 286.887 164.165 286.662 163.943C286.437 163.721 286.169 163.547 285.875 163.432C285.58 163.317 285.266 163.263 284.95 163.274C283.614 163.221 282.672 164.073 282.554 165.648Z" fill="#2D2D2D"/>
<path d="M279.877 189.453C279.954 189.164 279.96 188.859 279.897 188.565C279.834 188.273 279.703 187.999 279.515 187.764C279.327 187.531 279.086 187.344 278.812 187.221C278.539 187.098 278.24 187.042 277.94 187.054C276.594 186.996 275.63 187.963 275.566 189.412C275.513 190.725 276.098 191.598 277.583 191.683C279.233 191.78 279.696 190.759 279.877 189.453Z" fill="#2D2D2D"/>
<path d="M272.293 215.186C272.293 213.85 271.654 212.828 270.318 212.867C268.983 212.903 267.897 213.553 267.828 215.112C267.795 215.404 267.825 215.698 267.915 215.977C268.004 216.256 268.152 216.512 268.349 216.73C268.545 216.945 268.785 217.119 269.053 217.237C269.321 217.355 269.611 217.413 269.903 217.411C271.207 217.48 272.277 216.773 272.293 215.186Z" fill="#2D2D2D"/>
<path d="M381.51 112.766C380.361 112.857 380.531 113.708 380.35 114.363C378.753 120.271 377.55 126.311 374.496 131.735C372.899 134.545 371.079 137.195 369.232 139.84C368.902 140.309 368.21 140.766 368.881 141.437C369.636 142.209 370.206 141.527 370.717 141.091C372.862 139.176 374.629 136.876 375.927 134.31C378.791 129.052 381.441 123.725 382.899 117.854C383.309 116.199 382.34 114.901 382.452 113.389C382.468 112.937 381.883 112.772 381.51 112.766Z" fill="#2D2D2D"/>
<path d="M372.441 103.905C370.313 103.149 369.844 104.011 370.344 105.959C371.271 109.557 375.374 111.723 378.791 110.329C380.691 109.552 382.032 108.04 381.809 106.012C381.521 103.41 379.312 102.122 377.018 102.09C375.48 102.09 372.542 100.179 372.34 103.99C373.719 105.31 375.635 104.16 377.167 105.055C377.843 105.454 378.887 105.486 378.679 106.518C378.471 107.551 377.455 107.412 376.672 107.37C374.442 107.258 372.814 106.353 372.441 103.905Z" fill="#2D2D2D"/>
</svg>
