<svg width="23" height="22" viewBox="0 0 23 22" fill="none" xmlns="http://www.w3.org/2000/svg">
<g clip-path="url(#clip0_1_89)">
<path d="M7.71855 19.9381C16.0205 19.9381 20.5613 13.06 20.5613 7.09541C20.5613 6.90005 20.5613 6.70557 20.5481 6.51197C21.4314 5.87301 22.194 5.08186 22.8 4.17557C21.9763 4.54077 21.1024 4.78016 20.2075 4.88573C21.1498 4.32169 21.855 3.43444 22.1919 2.38917C21.3059 2.91497 20.3366 3.28551 19.3257 3.48477C18.6452 2.76113 17.7451 2.28195 16.7648 2.12139C15.7845 1.96083 14.7786 2.12784 13.9028 2.59656C13.027 3.06529 12.33 3.80961 11.9198 4.71434C11.5096 5.61906 11.4091 6.63376 11.6337 7.60141C9.83914 7.51139 8.0836 7.04502 6.48099 6.23257C4.87838 5.42012 3.46452 4.27975 2.33119 2.88549C1.75399 3.87915 1.5772 5.05544 1.83683 6.17487C2.09645 7.2943 2.77297 8.27269 3.72863 8.91085C3.01028 8.8898 2.30758 8.69601 1.67999 8.34589V8.40309C1.68027 9.4452 2.04102 10.4551 2.70104 11.2616C3.36105 12.068 4.27971 12.6214 5.30119 12.8277C4.63668 13.009 3.93946 13.0355 3.26311 12.9052C3.55165 13.802 4.11321 14.5862 4.86929 15.1482C5.62537 15.7102 6.53816 16.0219 7.48007 16.0397C6.54422 16.7753 5.47253 17.3192 4.32629 17.6402C3.18005 17.9613 1.98177 18.0531 0.799988 17.9106C2.86417 19.2352 5.26592 19.9378 7.71855 19.9346" fill="#A7A7A7"/>
</g>
<defs>
<clipPath id="clip0_1_89">
<rect width="22" height="22" fill="white" transform="translate(0.799988)"/>
</clipPath>
</defs>
</svg>
